<svg width="24" height="24" viewBox="0 0 24 24" fill="none" xmlns="http://www.w3.org/2000/svg">
<path d="M4.3125 6L6.75 15.75H20.25L23.25 6H4.3125Z" fill="#B6CEF3"/>
<path d="M13.5 6V15.75H20.25L23.25 6H13.5Z" fill="#8DB8E7"/>
<path d="M23.8533 5.55449C23.712 5.36287 23.4881 5.24999 23.25 5.24999H4.89824L3.72749 0.568124C3.64424 0.234375 3.34424 0 3 0H0.749999C0.335999 0 0 0.335999 0 0.749999C0 1.164 0.335999 1.5 0.749999 1.5H2.41425L5.90137 15.4488L3.3 17.4C3.111 17.5417 3 17.7641 3 18V21C3 21.414 3.33599 21.75 3.74999 21.75H6.74999C7.16399 21.75 7.49999 21.414 7.49999 21C7.49999 20.586 7.16399 20.25 6.74999 20.25H4.49999V18.375L7.00011 16.5H20.25C20.5792 16.5 20.8698 16.2851 20.967 15.9705L23.967 6.22049C24.0367 5.99287 23.9947 5.74574 23.8533 5.55449ZM21.3116 9.74998H17.4318L17.8935 6.74999H22.2345L21.3116 9.74998ZM11.8935 15L11.3164 11.25H15.6836L15.1065 15H11.8935ZM11.0857 9.74998L10.6241 6.74999H16.3759L15.9142 9.74998H11.0857ZM9.10649 6.74999L9.56811 9.74998H6.02287L5.27287 6.74999H9.10649ZM6.39824 11.25H9.79911L10.3762 15H7.33611L6.39824 11.25ZM19.6961 15H16.6241L17.2012 11.25H20.85L19.6961 15Z" fill="#E0E4FF"/>
<path d="M23.8534 5.5545C23.712 5.36287 23.4881 5.25 23.25 5.25H13.5V6.75H16.3759L15.9142 9.74999H13.5V11.25H15.6836L15.1065 15H13.5V16.5H20.25C20.5792 16.5 20.8699 16.2851 20.967 15.9705L23.967 6.2205C24.0367 5.99287 23.9947 5.74575 23.8534 5.5545ZM19.6961 15H16.6241L17.2012 11.25H20.85L19.6961 15ZM21.3116 9.74999H17.4319L17.8935 6.75H22.2345L21.3116 9.74999Z" fill="#B6CEF3"/>
<path d="M15.75 21.75H11.25C10.836 21.75 10.5 21.414 10.5 21C10.5 20.586 10.836 20.25 11.25 20.25H15.75C16.164 20.25 16.5 20.586 16.5 21C16.5 21.414 16.164 21.75 15.75 21.75Z" fill="#E0E4FF"/>
<path d="M15.75 20.25H13.5V21.75H15.75C16.164 21.75 16.5 21.414 16.5 21C16.5 20.586 16.164 20.25 15.75 20.25Z" fill="#B6CEF3"/>
<path d="M9 18C7.34587 18 6 19.3459 6 21C6 22.6541 7.34587 24 9 24C10.6541 24 12 22.6541 12 21C12 19.3459 10.6541 18 9 18Z" fill="#4D779D"/>
<path d="M9 22.5C8.17275 22.5 7.5 21.8272 7.5 21C7.5 20.1727 8.17275 19.5 9 19.5C9.82725 19.5 10.5 20.1727 10.5 21C10.5 21.8272 9.82725 22.5 9 22.5Z" fill="#3C6785"/>
<path d="M18 18C16.3459 18 15 19.3459 15 21C15 22.6541 16.3459 24 18 24C19.6541 24 21 22.6541 21 21C21 19.3459 19.6541 18 18 18Z" fill="#3C6785"/>
<path d="M18 22.5C17.1727 22.5 16.5 21.8272 16.5 21C16.5 20.1727 17.1727 19.5 18 19.5C18.8272 19.5 19.5 20.1727 19.5 21C19.5 21.8272 18.8272 22.5 18 22.5Z" fill="#2C576E"/>
</svg>
