<svg width="150" height="150" viewBox="0 0 150 150" fill="none" xmlns="http://www.w3.org/2000/svg">
<path d="M48.7087 72.7496C48.307 71.1923 47.4953 69.7711 46.358 68.6339C45.2208 67.4967 43.7997 66.685 42.2424 66.2833L14.6356 59.1644C14.1646 59.0308 13.7501 58.7471 13.4549 58.3565C13.1597 57.9658 13 57.4896 13 57C13 56.5104 13.1597 56.0341 13.4549 55.6435C13.7501 55.2529 14.1646 54.9692 14.6356 54.8355L42.2424 47.7122C43.7991 47.3109 45.2199 46.4998 46.3571 45.3635C47.4942 44.2271 48.3063 42.8068 48.7087 41.2504L55.8275 13.6436C55.9598 13.1707 56.2432 12.7541 56.6344 12.4574C57.0256 12.1606 57.5032 12 57.9942 12C58.4852 12 58.9628 12.1606 59.354 12.4574C59.7452 12.7541 60.0286 13.1707 60.1609 13.6436L67.2752 41.2504C67.677 42.8077 68.4887 44.2289 69.6259 45.3661C70.7631 46.5033 72.1843 47.315 73.7415 47.7167L101.348 54.831C101.823 54.962 102.242 55.2451 102.54 55.6369C102.838 56.0287 103 56.5075 103 57C103 57.4925 102.838 57.9713 102.54 58.3631C102.242 58.7549 101.823 59.038 101.348 59.1689L73.7415 66.2833C72.1843 66.685 70.7631 67.4967 69.6259 68.6339C68.4887 69.7711 67.677 71.1923 67.2752 72.7496L60.1564 100.356C60.0241 100.829 59.7407 101.246 59.3495 101.543C58.9583 101.839 58.4807 102 57.9897 102C57.4987 102 57.0211 101.839 56.6299 101.543C56.2387 101.246 55.9553 100.829 55.823 100.356L48.7087 72.7496Z" stroke="white" stroke-width="5" stroke-linecap="round" stroke-linejoin="round"/>
<path d="M125 18.75V43.75" stroke="white" stroke-width="2.66667" stroke-linecap="round" stroke-linejoin="round"/>
<path d="M137.5 31.25H112.5" stroke="white" stroke-width="2.66667" stroke-linecap="round" stroke-linejoin="round"/>
<path d="M25 106.25V118.75" stroke="white" stroke-width="2.66667" stroke-linecap="round" stroke-linejoin="round"/>
<path d="M31.25 112.5H18.75" stroke="white" stroke-width="2.66667" stroke-linecap="round" stroke-linejoin="round"/>
</svg>
