<svg width="138" height="138" viewBox="0 0 138 138" fill="none" xmlns="http://www.w3.org/2000/svg">
<path d="M34.5 51.75H25.875C22.0625 51.75 18.4062 50.2355 15.7103 47.5397C13.0145 44.8438 11.5 41.1875 11.5 37.375C11.5 33.5625 13.0145 29.9062 15.7103 27.2103C18.4062 24.5145 22.0625 23 25.875 23H34.5" stroke="#1372AE" stroke-width="5" stroke-linecap="round" stroke-linejoin="round"/>
<path d="M103.5 51.75H112.125C115.937 51.75 119.594 50.2355 122.29 47.5397C124.985 44.8438 126.5 41.1875 126.5 37.375C126.5 33.5625 124.985 29.9062 122.29 27.2103C119.594 24.5145 115.937 23 112.125 23H103.5" stroke="#1372AE" stroke-width="5" stroke-linecap="round" stroke-linejoin="round"/>
<path d="M23 126.5H115" stroke="#1372AE" stroke-width="5" stroke-linecap="round" stroke-linejoin="round"/>
<path d="M57.5 84.2949V97.7499C57.5 100.912 54.7975 103.385 51.9225 104.707C45.1375 107.812 40.25 116.38 40.25 126.5" stroke="#1372AE" stroke-width="5" stroke-linecap="round" stroke-linejoin="round"/>
<path d="M80.5 84.2949V97.7499C80.5 100.912 83.2025 103.385 86.0775 104.707C92.8625 107.812 97.75 116.38 97.75 126.5" stroke="#1372AE" stroke-width="5" stroke-linecap="round" stroke-linejoin="round"/>
<path d="M103.5 11.5H34.5V51.75C34.5 60.9 38.1348 69.6752 44.6048 76.1452C51.0748 82.6152 59.85 86.25 69 86.25C78.15 86.25 86.9252 82.6152 93.3952 76.1452C99.8652 69.6752 103.5 60.9 103.5 51.75V11.5Z" stroke="#1372AE" stroke-width="5" stroke-linecap="round" stroke-linejoin="round"/>
</svg>
