<svg width="28" height="28" viewBox="0 0 28 28" fill="none" xmlns="http://www.w3.org/2000/svg">
<path d="M11.5931 18.0833C11.489 17.6795 11.2785 17.3111 10.9837 17.0162C10.6889 16.7214 10.3204 16.511 9.91664 16.4068L2.75914 14.5611C2.63702 14.5265 2.52955 14.4529 2.45302 14.3517C2.37649 14.2504 2.33508 14.1269 2.33508 14C2.33508 13.873 2.37649 13.7496 2.45302 13.6483C2.52955 13.547 2.63702 13.4735 2.75914 13.4388L9.91664 11.592C10.3202 11.4879 10.6886 11.2776 10.9834 10.983C11.2783 10.6884 11.4888 10.3202 11.5931 9.91663L13.4388 2.75913C13.4731 2.63654 13.5466 2.52853 13.648 2.45159C13.7494 2.37465 13.8732 2.33301 14.0006 2.33301C14.1279 2.33301 14.2517 2.37465 14.3531 2.45159C14.4545 2.52853 14.528 2.63654 14.5623 2.75913L16.4068 9.91663C16.511 10.3204 16.7214 10.6888 17.0163 10.9837C17.3111 11.2785 17.6796 11.489 18.0833 11.5931L25.2408 13.4376C25.3639 13.4716 25.4724 13.545 25.5498 13.6466C25.6271 13.7481 25.669 13.8723 25.669 14C25.669 14.1276 25.6271 14.2518 25.5498 14.3534C25.4724 14.455 25.3639 14.5283 25.2408 14.5623L18.0833 16.4068C17.6796 16.511 17.3111 16.7214 17.0163 17.0162C16.7214 17.3111 16.511 17.6795 16.4068 18.0833L14.5611 25.2408C14.5268 25.3634 14.4534 25.4714 14.3519 25.5483C14.2505 25.6253 14.1267 25.6669 13.9994 25.6669C13.8721 25.6669 13.7483 25.6253 13.6468 25.5483C13.5454 25.4714 13.4719 25.3634 13.4376 25.2408L11.5931 18.0833Z" stroke="white" stroke-width="2" stroke-linecap="round" stroke-linejoin="round"/>
<path d="M23.3334 3.5V8.16667" stroke="white" stroke-linecap="round" stroke-linejoin="round"/>
<path d="M25.6667 5.8335H21" stroke="white" stroke-linecap="round" stroke-linejoin="round"/>
<path d="M4.66663 19.8335V22.1668" stroke="white" stroke-linecap="round" stroke-linejoin="round"/>
<path d="M5.83333 21H3.5" stroke="white" stroke-linecap="round" stroke-linejoin="round"/>
</svg>
