<svg preserveAspectRatio="none" width="100%" height="100%" overflow="visible" style="display: block;" viewBox="0 0 18.2292 18.2292" fill="none" xmlns="http://www.w3.org/2000/svg">
<path id="Vector" d="M14.3229 0C15.3273 0 16.1458 0.818528 16.1458 1.82292V4.16667H16.4062C17.4126 4.16667 18.2292 4.98265 18.2292 5.98958V16.4062C18.2292 17.4132 17.4126 18.2292 16.4062 18.2292H1.82292C0.816597 18.2292 0 17.4132 0 16.4062V5.98958C0 5.9721 0.00222358 5.95473 0.00271267 5.93736C0.00396822 5.89311 0.00511628 5.84922 0.00949436 5.8058C0.0116175 5.7846 0.0154673 5.76371 0.0183105 5.74273C0.0235645 5.70422 0.0283082 5.66584 0.0359429 5.62812C0.0412943 5.60153 0.0491144 5.57561 0.0556098 5.54945C0.0625254 5.52175 0.0684608 5.4939 0.076633 5.46672C0.0889593 5.4255 0.103571 5.38526 0.118679 5.34532C0.123383 5.33295 0.127278 5.32027 0.132243 5.30802C0.14687 5.27178 0.163547 5.23659 0.180393 5.20155C0.189281 5.18314 0.198036 5.16469 0.20752 5.14662C0.226768 5.10982 0.247598 5.07406 0.269233 5.03879C0.275187 5.02911 0.280736 5.01919 0.286865 5.00963C0.313589 4.96784 0.342368 4.92761 0.372314 4.88824C0.375548 4.88399 0.378539 4.87957 0.381809 4.87535C0.409857 4.83913 0.439328 4.80421 0.469971 4.77024C0.478981 4.76026 0.487872 4.75017 0.497097 4.7404C0.527722 4.70791 0.559804 4.67698 0.592719 4.64681C0.599558 4.64055 0.60613 4.63398 0.613064 4.62782C0.649466 4.59546 0.687396 4.56499 0.726318 4.53559C0.730178 4.53267 0.733964 4.52966 0.737847 4.52677C0.823188 4.46336 0.913913 4.40719 1.00979 4.35927C1.01603 4.35614 1.0225 4.3535 1.02878 4.35045C1.07223 4.32936 1.11641 4.30979 1.1617 4.29213C1.17229 4.28799 1.18289 4.28387 1.19358 4.27992C1.23391 4.26506 1.27471 4.25126 1.31632 4.23923C1.33425 4.23403 1.35243 4.22965 1.37058 4.22499C1.40992 4.21493 1.44962 4.20599 1.48994 4.19854C1.50253 4.1962 1.51524 4.19451 1.52791 4.19244C1.57466 4.18482 1.62178 4.17812 1.66965 4.17413C1.67055 4.17405 1.67146 4.1742 1.67236 4.17413L14.0761 0.0400119L14.1981 0.0101725C14.2393 0.00350471 14.281 0 14.3229 0ZM1.82292 5.72917C1.68147 5.72917 1.5625 5.84814 1.5625 5.98958V16.4062C1.5625 16.5477 1.68147 16.6667 1.82292 16.6667H16.4062C16.5499 16.6667 16.6667 16.5499 16.6667 16.4062V5.98958C16.6667 5.8459 16.5499 5.72917 16.4062 5.72917H1.82292ZM13.8021 9.89583C14.521 9.89583 15.1042 10.4787 15.1042 11.1979C15.1042 11.9171 14.521 12.5 13.8021 12.5C13.0832 12.5 12.5 11.9171 12.5 11.1979C12.5 10.4787 13.0832 9.89583 13.8021 9.89583ZM6.63859 4.16667H14.5833V1.82292C14.5833 1.71028 14.5078 1.61215 14.4057 1.57674L6.63859 4.16667Z" fill="var(--fill-0, white)"/>
</svg>
