<svg width="151" height="66" viewBox="0 0 151 66" fill="none" xmlns="http://www.w3.org/2000/svg">
<path d="M66.4633 34.9316H69.7673L72.4173 20.7372L68.2333 25.4444L66.4633 34.9316Z" fill="#00A6E2"/>
<path d="M54.1092 49.1456L42.5896 54.9787L39.754 58.0889L55.1503 50.2911L54.1092 49.1456Z" fill="#00A6E2"/>
<path d="M82.4841 34.9315L64.8864 43.6608L62.7932 55.0635L65.5416 58.0889L68.1916 43.6608L85.7893 34.9315H82.4841Z" fill="#00A6E2"/>
<path d="M62.9603 34.9316H66.4633L69.1122 20.7372L64.6786 25.725L62.9603 34.9316Z" fill="#0083C6"/>
<path d="M50.6062 49.1456L39.4553 54.7929L36.4488 58.0889L51.7099 50.36L50.6062 49.1456Z" fill="#0083C6"/>
<path d="M78.9823 34.9315L61.3845 43.6608L59.3232 54.8839L62.2376 58.0889L64.8864 43.6608L82.4841 34.9315H78.9823Z" fill="#0083C6"/>
<path d="M40.6574 18.0624C49.4802 12.1753 72.072 -0.251124 95.0988 0.269308C78.5901 -1.03854 54.135 2.44208 36.3234 10.1661C11.6409 20.8676 -5.10137 43.6608 1.41435 55.648C7.0082 65.9385 26.0293 61.2152 46.0583 47.9178C46.0767 47.9055 46.0951 47.8932 46.1136 47.8821L55.3912 58.0902L58.04 43.6608L75.6377 34.9316H59.617L62.2658 20.7384L49.6511 34.9316H33.6303L42.6498 44.0693C42.6498 44.0693 38.4228 47.3149 33.1989 49.078C27.975 50.8398 22.6934 50.7266 20.2523 47.6003C17.8112 44.4741 18.6618 39.8258 22.069 34.9316C25.4762 30.0373 31.8346 23.9496 40.6562 18.0624H40.6574Z" fill="#FECA0C"/>
<path d="M59.6171 34.9316H62.9604L65.6104 20.7372L61.3772 25.4998L59.6171 34.9316Z" fill="#0064A7"/>
<path d="M46.1136 47.8809C46.0952 47.8932 46.0767 47.9055 46.0583 47.9165C43.1624 49.8396 40.2887 51.5805 37.4727 53.1258L32.947 58.089L48.3162 50.3046L46.1136 47.8809Z" fill="#0064A7"/>
<path d="M58.04 43.6608L55.9529 55.0278L58.7345 58.0889L61.3845 43.6608L78.9822 34.9315H75.6377L58.04 43.6608Z" fill="#0064A7"/>
<path d="M72.7567 3.33033C58.5674 7.29201 46.5451 14.1327 40.6574 18.0611C31.8346 23.9483 25.4775 30.036 22.0703 34.9303C20.4797 37.2138 19.4473 39.4444 19.0453 41.4917C19.0724 41.4141 20.256 38.1095 26.3538 31.2208C31.4487 25.4665 37.5059 21.4852 45.386 17.0043C68.2764 3.99102 82.0343 3.23436 90.1639 3.05597C90.1639 3.05597 85.5496 1.32242 72.7567 3.3291V3.33033Z" fill="#CFCFD1"/>
<path d="M101.015 39.9378C101.401 37.7909 100.822 37.0391 99.6639 36.0524C98.506 35.0644 96.3821 34.8011 93.1863 34.8011C89.9905 34.8011 87.5027 35.8592 85.5299 37.5128C83.5571 39.1664 82.7422 41.7415 82.7422 41.7415H85.423C85.6368 40.9036 86.3448 39.3152 88.4467 38.1993C90.5485 37.0834 93.4518 37.0773 95.7159 37.3295C97.98 37.5817 98.5146 38.7936 98.4667 39.832C98.42 40.8704 98.2307 41.3748 96.5173 42.3185C94.8038 43.2622 91.8477 43.3889 91.361 43.4516C90.873 43.5144 86.9901 43.8921 85.0567 44.522C83.1232 45.152 82.1952 45.7019 80.7964 47.3863C79.3977 49.0706 79.2711 51.4931 79.6177 52.5475C79.9631 53.6019 80.6551 54.6096 82.8565 55.2543C85.0579 55.8989 88.1554 55.6357 90.9222 54.6723C93.689 53.709 95.1959 52.0701 95.1959 52.0701C95.1959 52.0701 94.9575 53.0962 95.1382 54.1851C95.3385 55.397 96.8356 55.4474 96.8356 55.4474H99.0038L99.7868 52.7038C99.7868 52.7038 98.3327 52.753 98.0992 52.5832C97.8656 52.4134 97.9701 51.5325 98.077 51.1671C98.184 50.8017 100.629 42.086 101.015 39.939V39.9378ZM92.5102 51.8684C88.9813 53.7274 84.9497 53.5146 83.4367 52.5586C81.9248 51.6026 82.0834 49.8494 82.827 48.6018C83.5694 47.3543 85.2681 46.3983 90.2941 45.8139C95.3201 45.2295 97.2855 44.3535 97.2855 44.3535C96.639 47.3752 96.0391 50.0093 92.5102 51.8684Z" fill="#CFCFD1"/>
<path d="M99.3554 39.9378C99.7413 37.7909 99.1624 37.0391 98.0046 36.0524C96.8467 35.0644 94.7227 34.8011 91.5269 34.8011C88.3311 34.8011 85.8434 35.8592 83.8706 37.5128C81.8978 39.1664 81.0829 41.7415 81.0829 41.7415H83.7636C83.9775 40.9036 84.6855 39.3152 86.7873 38.1993C88.8892 37.0834 91.7924 37.0773 94.0565 37.3295C96.3206 37.5817 96.8553 38.7936 96.8074 39.832C96.7607 40.8704 96.5714 41.3748 94.8579 42.3185C93.1445 43.2622 90.1884 43.3889 89.7017 43.4516C89.2137 43.5144 85.3308 43.8921 83.3973 44.522C81.4639 45.152 80.5359 45.7019 79.1371 47.3863C77.7383 49.0706 77.6117 51.4931 77.9584 52.5475C78.3038 53.6019 78.9958 54.6096 81.1972 55.2543C83.3986 55.8989 86.496 55.6357 89.2628 54.6723C92.0297 53.709 93.5366 52.0701 93.5366 52.0701C93.5366 52.0701 93.2981 53.0962 93.4788 54.1851C93.6792 55.397 95.1763 55.4474 95.1763 55.4474H97.3445L98.1275 52.7038C98.1275 52.7038 96.6734 52.753 96.4398 52.5832C96.2063 52.4134 96.3108 51.5325 96.4177 51.1671C96.5247 50.8017 98.9694 42.086 99.3554 39.939V39.9378ZM90.8509 51.8684C87.322 53.7274 83.2904 53.5146 81.7773 52.5586C80.2655 51.6026 80.424 49.8494 81.1677 48.6018C81.9101 47.3543 83.6088 46.3983 88.6348 45.8139C93.6607 45.2295 95.6262 44.3535 95.6262 44.3535C94.9796 47.3752 94.3798 50.0093 90.8509 51.8684Z" fill="#FFCC00"/>
<path d="M105.533 35.7583L100.172 55.6061H102.733C102.733 55.6061 105.363 46.1707 105.743 44.7349C105.874 44.2403 106.606 42.0011 108.156 40.6157C109.643 39.2869 111.884 37.7453 114.91 37.7453C117.936 37.7453 119.057 38.1587 119.574 39.7373C120.126 41.4277 118.861 45.6859 118.536 46.8228C118.212 47.9596 116.104 55.6357 116.104 55.6357H118.563C118.563 55.6357 122.713 40.4681 122.773 39.5096C122.82 38.7776 122.49 37.3959 121.195 36.5581C119.629 35.5443 117.638 35.3474 116.411 35.3474C114.392 35.3474 112.442 35.8063 110.418 36.8915C108.542 37.8967 107.175 39.4174 107.158 39.4001C107.109 39.3509 108.087 35.7866 108.087 35.7866L105.533 35.7608V35.7583Z" fill="#CFCFD1"/>
<path d="M104.035 35.7583L98.6733 55.6061H101.235C101.235 55.6061 103.423 47.6434 104.125 45.2036C104.522 43.8232 105.108 42.0011 106.658 40.6157C108.145 39.2869 110.386 37.7453 113.412 37.7453C116.438 37.7453 117.635 38.379 118.075 39.7373C118.622 41.429 117.362 45.6859 117.038 46.8228C116.713 47.9596 114.606 55.6357 114.606 55.6357H117.065C117.065 55.6357 121.275 40.6772 121.275 39.5096C121.275 38.5168 120.992 37.3959 119.697 36.5581C118.131 35.5443 116.139 35.3474 114.913 35.3474C112.893 35.3474 110.944 35.8063 108.919 36.8915C107.044 37.8967 105.677 39.4174 105.66 39.4001C105.611 39.3509 106.589 35.7866 106.589 35.7866L104.035 35.7608V35.7583Z" fill="#FFCC00"/>
<path d="M144.297 46.1202C146.74 38.1993 141.973 34.9242 136.516 35.0558C131.061 35.1862 126.241 38.2239 123.865 43.6608C121.55 48.9574 122.479 56.1216 131.098 56.1216C139.717 56.1216 142.622 49.1948 142.622 49.1948H139.806C139.806 49.1948 137.646 53.7803 130.968 53.6905C124.093 53.5994 125.822 46.1202 125.822 46.1202H144.297ZM130.5 39.0113C134.492 36.6023 138.358 37.2421 140.301 38.6139C142.876 40.4311 141.921 43.9597 141.921 43.9597H126.473C126.473 43.9597 127.503 40.8212 130.501 39.0113H130.5Z" fill="#CFCFD1"/>
<path d="M142.652 46.1202C145.096 38.1993 140.328 34.9242 134.872 35.0558C129.417 35.1862 124.596 38.2239 122.22 43.6608C119.906 48.9574 120.835 56.1216 129.454 56.1216C138.072 56.1216 140.977 49.1948 140.977 49.1948H138.161C138.161 49.1948 136.001 53.7803 129.323 53.6905C122.449 53.5994 124.177 46.1202 124.177 46.1202H142.652ZM128.855 39.0113C132.847 36.6023 136.713 37.2421 138.656 38.6139C141.231 40.4311 140.276 43.9597 140.276 43.9597H124.828C124.828 43.9597 125.858 40.8212 128.856 39.0113H128.855Z" fill="#FFCC00"/>
<path d="M148.48 38.1759L148.459 38.1489C148.81 38.0923 148.96 37.8438 148.961 37.5423C148.963 37.1708 148.685 36.9235 148.343 36.9235H147.265V39.0938H147.581V38.1895H148.101L148.754 39.0938H149.177L148.478 38.1747L148.48 38.1759ZM147.582 37.9139C147.582 37.6789 147.573 37.407 147.573 37.172C147.732 37.1708 148.322 37.172 148.322 37.172C148.528 37.172 148.694 37.3381 148.694 37.5436C148.694 37.749 148.528 37.9151 148.322 37.9151H147.581L147.582 37.9139Z" fill="#FFCC00"/>
<path d="M148.194 39.8443C149.192 39.8443 150 39.0352 150 38.037C150 37.0388 149.192 36.2296 148.194 36.2296C147.197 36.2296 146.389 37.0388 146.389 38.037C146.389 39.0352 147.197 39.8443 148.194 39.8443Z" stroke="#FFCC00" stroke-width="1.9" stroke-linecap="round" stroke-linejoin="round"/>
<path d="M102.967 59.2504H104.004L105.892 62.4111L107.781 59.2504H108.828L106.341 63.1764V65.8265H105.451V63.1764L102.967 59.2504Z" fill="white"/>
<path d="M109.78 61.0319V64.2147C109.78 64.4596 109.818 64.6589 109.893 64.8151C110.032 65.1018 110.292 65.2445 110.672 65.2445C111.218 65.2445 111.59 64.9935 111.787 64.4928C111.894 64.2246 111.948 63.8555 111.948 63.3867V61.0319H112.753V65.8265H111.993L112.002 65.119C111.9 65.3011 111.772 65.4549 111.62 65.5804C111.319 65.8314 110.952 65.9569 110.523 65.9569C109.854 65.9569 109.398 65.7281 109.154 65.2716C109.023 65.0268 108.956 64.7007 108.956 64.291V61.0319H109.779H109.78Z" fill="white"/>
<path d="M114.068 61.032H114.865V61.7123C115.055 61.4761 115.229 61.3051 115.384 61.1981C115.649 61.016 115.95 60.9249 116.287 60.9249C116.668 60.9249 116.975 61.0184 117.209 61.2067C117.34 61.3137 117.46 61.4724 117.567 61.6816C117.746 61.4244 117.956 61.235 118.197 61.1107C118.438 60.9864 118.71 60.9249 119.011 60.9249C119.655 60.9249 120.094 61.1575 120.326 61.6238C120.451 61.8747 120.514 62.2119 120.514 62.6351V65.8266H119.678V62.4961C119.678 62.1774 119.598 61.9572 119.439 61.8378C119.279 61.7185 119.085 61.6582 118.855 61.6582C118.539 61.6582 118.267 61.764 118.039 61.9756C117.81 62.1872 117.697 62.5416 117.697 63.0362V65.8254H116.878V62.6966C116.878 62.3718 116.839 62.1343 116.761 61.9855C116.64 61.7616 116.411 61.6496 116.077 61.6496C115.773 61.6496 115.497 61.7677 115.247 62.0027C114.998 62.2389 114.873 62.6646 114.873 63.2835V65.8266H114.068V61.032Z" fill="white"/>
<path d="M121.631 59.2283H122.414V61.6139C122.591 61.3838 122.801 61.2091 123.047 61.0873C123.293 60.9668 123.559 60.9065 123.846 60.9065C124.445 60.9065 124.93 61.1119 125.303 61.5216C125.675 61.9326 125.862 62.5367 125.862 63.3364C125.862 64.0943 125.678 64.7242 125.31 65.225C124.943 65.7269 124.431 65.9767 123.78 65.9767C123.415 65.9767 123.106 65.8881 122.855 65.7122C122.706 65.6076 122.546 65.4403 122.375 65.2102V65.8229H121.632V59.2246L121.631 59.2283ZM124.709 64.7476C124.925 64.4019 125.035 63.9442 125.035 63.3782C125.035 62.8738 124.927 62.4567 124.709 62.1245C124.493 61.7936 124.173 61.6275 123.752 61.6275C123.384 61.6275 123.061 61.7628 122.784 62.0347C122.508 62.3066 122.369 62.7544 122.369 63.3782C122.369 63.8285 122.425 64.1939 122.54 64.4745C122.752 65.0023 123.148 65.2668 123.728 65.2668C124.165 65.2668 124.491 65.0933 124.709 64.7476Z" fill="white"/>
<path d="M130.262 61.5106C130.685 61.9215 130.898 62.5268 130.898 63.3266C130.898 64.1263 130.711 64.7365 130.339 65.241C129.966 65.7454 129.387 65.9964 128.602 65.9964C127.948 65.9964 127.428 65.7737 127.043 65.3283C126.658 64.8829 126.466 64.2838 126.466 63.532C126.466 62.7274 126.668 62.0864 127.074 61.609C127.48 61.1316 128.024 60.8929 128.709 60.8929C129.322 60.8929 129.84 61.0984 130.264 61.5106H130.262ZM129.762 64.6971C129.958 64.2936 130.056 63.8433 130.056 63.3487C130.056 62.9021 129.985 62.5379 129.843 62.2574C129.62 61.8157 129.232 61.5955 128.684 61.5955C128.197 61.5955 127.843 61.7837 127.623 62.159C127.402 62.5342 127.292 62.9882 127.292 63.5185C127.292 64.0488 127.402 64.4523 127.623 64.7931C127.845 65.1327 128.195 65.3025 128.676 65.3025C129.203 65.3025 129.565 65.1007 129.761 64.6971H129.762Z" fill="white"/>
<path d="M100.14 63.4077H102.385V64.2357H100.14V63.4077Z" fill="white"/>
<path d="M68.6316 63.8641C68.6316 64.419 68.5493 64.8509 68.3858 65.1585C68.081 65.7195 67.502 66 66.649 66C66.1561 66 65.7357 65.8659 65.3867 65.5989C65.0376 65.3319 64.863 64.857 64.863 64.173V63.703H65.6989V64.173C65.6989 64.531 65.7788 64.8004 65.9385 64.9813C66.0983 65.1621 66.3478 65.252 66.6846 65.252C67.1591 65.252 67.4701 65.0896 67.6163 64.7635C67.7061 64.5642 67.7503 64.1865 67.7503 63.6304V59.2479H68.6316V63.8629V63.8641Z" fill="white"/>
<path d="M72.4432 62.9242C72.6276 62.9008 72.7517 62.8233 72.8144 62.6917C72.85 62.6203 72.8685 62.5169 72.8685 62.3816C72.8685 62.106 72.7714 61.9055 72.5759 61.7812C72.3805 61.6569 72.1015 61.5942 71.7389 61.5942C71.3197 61.5942 71.0223 61.7086 70.8465 61.9362C70.7482 62.0617 70.6843 62.25 70.6548 62.4985H69.9038C69.9185 61.9055 70.1103 61.4933 70.4778 61.262C70.8453 61.0307 71.2718 60.9138 71.7573 60.9138C72.3203 60.9138 72.7775 61.0209 73.1291 61.2362C73.4769 61.4515 73.6514 61.7849 73.6514 62.2389V65.001C73.6514 65.0847 73.6687 65.1523 73.7031 65.2028C73.7375 65.2532 73.81 65.279 73.9194 65.279C73.955 65.279 73.9956 65.2766 74.0399 65.2729C74.0841 65.268 74.132 65.2618 74.1824 65.2532V65.8487C74.0571 65.8844 73.9612 65.9065 73.896 65.9164C73.8309 65.925 73.7412 65.9299 73.6281 65.9299C73.3503 65.9299 73.15 65.8315 73.0246 65.6346C72.9594 65.53 72.9127 65.3824 72.8857 65.1917C72.7222 65.407 72.4862 65.5928 72.1789 65.7515C71.8716 65.9102 71.5336 65.989 71.1636 65.989C70.7199 65.989 70.3561 65.8536 70.0746 65.5842C69.7931 65.3147 69.6518 64.9764 69.6518 64.5716C69.6518 64.1275 69.7907 63.783 70.0672 63.5394C70.3438 63.2945 70.7076 63.1444 71.1587 63.0878L72.442 62.9266L72.4432 62.9242ZM70.7482 65.1007C70.9178 65.2348 71.1194 65.3012 71.3517 65.3012C71.6344 65.3012 71.9097 65.236 72.174 65.1043C72.6214 64.8866 72.8451 64.531 72.8451 64.0364V63.388C72.7468 63.4508 72.6202 63.5037 72.4653 63.5455C72.3104 63.5873 72.1593 63.6169 72.0105 63.6353L71.5238 63.6981C71.2325 63.7362 71.0125 63.7977 70.8662 63.8814C70.6167 64.0216 70.4925 64.2443 70.4925 64.5507C70.4925 64.7832 70.5773 64.9665 70.747 65.1007H70.7482Z" fill="white"/>
<path d="M74.9691 61.0306H75.7656V61.711C75.9561 61.4748 76.1294 61.3038 76.2843 61.1967C76.5498 61.016 76.8509 60.9236 77.1877 60.9236C77.5687 60.9236 77.876 61.0171 78.1096 61.2053C78.2411 61.3124 78.3603 61.4711 78.4672 61.6802C78.6467 61.4231 78.8569 61.2336 79.0978 61.1094C79.3387 60.9851 79.6103 60.9236 79.9115 60.9236C80.5556 60.9236 80.9944 61.1561 81.2267 61.6224C81.3521 61.8734 81.4147 62.2105 81.4147 62.6337V65.8252H80.5789V62.4947C80.5789 62.1761 80.499 61.9558 80.3392 61.8365C80.1794 61.7171 79.9852 61.6569 79.7554 61.6569C79.4395 61.6569 79.1679 61.7627 78.9392 61.9743C78.7106 62.1859 78.5975 62.5402 78.5975 63.0348V65.824H77.7789V62.6953C77.7789 62.3705 77.7396 62.133 77.6621 61.9841C77.5405 61.7602 77.3118 61.6483 76.9775 61.6483C76.6739 61.6483 76.3974 61.7664 76.1478 62.0014C75.8983 62.2376 75.7742 62.6633 75.7742 63.2821V65.8252H74.9691V61.0306Z" fill="white"/>
<path d="M83.4035 61.0306V64.2135C83.4035 64.4584 83.4416 64.6577 83.5166 64.8139C83.6555 65.1006 83.916 65.2433 84.2959 65.2433C84.8416 65.2433 85.214 64.9923 85.4107 64.4916C85.5176 64.2234 85.5717 63.8543 85.5717 63.3855V61.0306H86.3768V65.8253H85.6172L85.6258 65.1178C85.5238 65.2999 85.3959 65.4537 85.2435 65.5792C84.9424 65.8302 84.5761 65.9557 84.1471 65.9557C83.4772 65.9557 83.0212 65.7268 82.7778 65.2704C82.6463 65.0255 82.58 64.6995 82.58 64.2898V61.0306H83.4023H83.4035Z" fill="white"/>
<path d="M87.6933 61.0306H88.4578V61.711C88.684 61.4305 88.9249 61.2287 89.1781 61.1069C89.4313 60.9851 89.7128 60.9236 90.0238 60.9236C90.7035 60.9236 91.1632 61.161 91.4016 61.6359C91.5332 61.8955 91.5983 62.2671 91.5983 62.7506V65.8265H90.7797V62.8048C90.7797 62.5119 90.7367 62.277 90.6494 62.0973C90.5068 61.7984 90.2475 61.6495 89.8713 61.6495C89.6808 61.6495 89.5235 61.6692 89.4018 61.7073C89.1806 61.7725 88.9876 61.9042 88.8204 62.101C88.6864 62.2597 88.5992 62.4221 88.5586 62.5907C88.518 62.7592 88.4984 63.0004 88.4984 63.3141V65.8252H87.6933V61.0306Z" fill="white"/>
<path d="M95.4185 61.1784C95.5611 61.2682 95.7233 61.4244 95.904 61.6484V59.2271H96.6771V65.8253H95.9532V65.1585C95.7663 65.4538 95.5451 65.6679 95.2894 65.7983C95.0338 65.9299 94.7412 65.9951 94.4118 65.9951C93.8796 65.9951 93.4199 65.77 93.0303 65.3209C92.6406 64.8718 92.4464 64.2739 92.4464 63.5283C92.4464 62.8295 92.6234 62.2254 92.9786 61.7136C93.3339 61.2017 93.8403 60.9458 94.5003 60.9458C94.8654 60.9458 95.1714 61.0233 95.4185 61.1784ZM93.6215 64.7734C93.8378 65.1191 94.1857 65.2926 94.6626 65.2926C95.0338 65.2926 95.3386 65.1327 95.5771 64.8115C95.8155 64.4904 95.9347 64.0303 95.9347 63.4299C95.9347 62.8295 95.8118 62.3755 95.566 62.0851C95.3202 61.7948 95.0153 61.6484 94.654 61.6484C94.2508 61.6484 93.9239 61.8034 93.6731 62.1134C93.4224 62.4235 93.297 62.8799 93.297 63.4828C93.297 63.9958 93.4052 64.4265 93.6215 64.7722V64.7734Z" fill="white"/>
<path d="M99.5619 59.1016L98.3672 60.3959H97.7501L98.5687 59.1016H99.5619ZM98.1348 61.0529H98.9535V65.8253H98.1348V61.0529Z" fill="white"/>
</svg>
