<svg width="25" height="25" viewBox="0 0 25 25" fill="none" xmlns="http://www.w3.org/2000/svg">
<path d="M17.7087 3.38538C18.713 3.38538 19.5316 4.2039 19.5316 5.20829V7.55204H19.792C20.7983 7.55204 21.6149 8.36802 21.6149 9.37496V19.7916C21.6149 20.7986 20.7983 21.6145 19.792 21.6145H5.20866C4.20234 21.6145 3.38574 20.7986 3.38574 19.7916V9.37496C3.38574 9.35748 3.38797 9.34011 3.38845 9.32274C3.38971 9.27849 3.39086 9.23459 3.39524 9.19118C3.39736 9.16998 3.40121 9.14908 3.40405 9.12811C3.40931 9.08959 3.41405 9.05121 3.42169 9.0135C3.42704 8.9869 3.43486 8.96099 3.44135 8.93483C3.44827 8.90713 3.4542 8.87928 3.46238 8.85209C3.4747 8.81087 3.48931 8.77063 3.50442 8.7307C3.50913 8.71832 3.51302 8.70565 3.51799 8.6934C3.53261 8.65716 3.54929 8.62197 3.56613 8.58693C3.57502 8.56851 3.58378 8.55006 3.59326 8.532C3.61251 8.49519 3.63334 8.45944 3.65498 8.42417C3.66093 8.41449 3.66648 8.40456 3.67261 8.39501C3.69933 8.35321 3.72811 8.31299 3.75806 8.27361C3.76129 8.26937 3.76428 8.26494 3.76755 8.26073C3.7956 8.22451 3.82507 8.18959 3.85571 8.15561C3.86472 8.14564 3.87361 8.13555 3.88284 8.12577C3.91346 8.09328 3.94555 8.06236 3.97846 8.03219C3.9853 8.02592 3.99187 8.01936 3.99881 8.0132C4.03521 7.98083 4.07314 7.95037 4.11206 7.92097C4.11592 7.91805 4.11971 7.91504 4.12359 7.91215C4.20893 7.84874 4.29966 7.79256 4.39553 7.74464C4.40177 7.74152 4.40825 7.73888 4.41452 7.73583C4.45797 7.71473 4.50216 7.69516 4.54744 7.6775C4.55803 7.67336 4.56864 7.66924 4.57932 7.6653C4.61966 7.65044 4.66045 7.63663 4.70207 7.62461C4.71999 7.61941 4.73817 7.61502 4.75632 7.61036C4.79566 7.60031 4.83536 7.59137 4.87568 7.58392C4.88827 7.58158 4.90098 7.57989 4.91366 7.57781C4.96041 7.57019 5.00752 7.56349 5.05539 7.5595C5.05629 7.55943 5.05721 7.55958 5.05811 7.5595L17.4618 3.42539L17.5839 3.39555C17.6251 3.38888 17.6668 3.38538 17.7087 3.38538ZM5.20866 9.11454C5.06721 9.11454 4.94824 9.23351 4.94824 9.37496V19.7916C4.94824 19.9331 5.06721 20.052 5.20866 20.052H19.792C19.9357 20.052 20.0524 19.9353 20.0524 19.7916V9.37496C20.0524 9.23127 19.9357 9.11454 19.792 9.11454H5.20866ZM17.1878 13.2812C17.9067 13.2812 18.4899 13.8641 18.4899 14.5833C18.4899 15.3025 17.9067 15.8854 17.1878 15.8854C16.469 15.8854 15.8857 15.3025 15.8857 14.5833C15.8857 13.8641 16.469 13.2812 17.1878 13.2812ZM10.0243 7.55204H17.9691V5.20829C17.9691 5.09566 17.8935 4.99752 17.7914 4.96212L10.0243 7.55204Z" fill="white"/>
</svg>
